<?xml version="1.0" encoding="UTF-8" standalone="no"?>
<svg
   width="48"
   height="48"
   version="1.1"
   id="svg4"
   sodipodi:docname="instagram_logo.svg"
   inkscape:version="1.1.2 (0a00cf5339, 2022-02-04, custom)"
   xmlns:inkscape="http://www.inkscape.org/namespaces/inkscape"
   xmlns:sodipodi="http://sodipodi.sourceforge.net/DTD/sodipodi-0.dtd"
   xmlns="http://www.w3.org/2000/svg"
   xmlns:svg="http://www.w3.org/2000/svg">
  <defs
     id="defs8" />
  <sodipodi:namedview
     id="namedview6"
     pagecolor="#505050"
     bordercolor="#eeeeee"
     borderopacity="1"
     inkscape:pageshadow="0"
     inkscape:pageopacity="0"
     inkscape:pagecheckerboard="0"
     showgrid="false"
     inkscape:zoom="17.208333"
     inkscape:cx="24"
     inkscape:cy="24.029056"
     inkscape:window-width="1920"
     inkscape:window-height="1011"
     inkscape:window-x="0"
     inkscape:window-y="32"
     inkscape:window-maximized="1"
     inkscape:current-layer="svg4" />
  <path
     d="M24.002 0l-9.896.145C11.551.262 9.807.667 8.281 1.26A11.75 11.75 0 0 0 4.03 4.028a11.78 11.78 0 0 0-2.77 4.251C.665 9.805.26 11.55.145 14.104L0 24l.145 9.894c.118 2.555.522 4.299 1.115 5.825.614 1.578 1.434 2.917 2.768 4.252a11.75 11.75 0 0 0 4.25 2.77c1.527.593 3.272.998 5.826 1.115l9.895.145 9.894-.145c2.555-.117 4.301-.522 5.828-1.115a11.74 11.74 0 0 0 4.249-2.77 11.78 11.78 0 0 0 2.77-4.251c.59-1.526.995-3.271 1.115-5.825L48 24l-.145-9.896c-.12-2.555-.525-4.299-1.115-5.825-.615-1.578-1.435-2.917-2.77-4.251S41.3 1.873 39.72 1.26C38.19.667 36.445.262 33.89.145L23.995 0zm-2.153 4.325h2.153l9.698.138c2.34.107 3.61.498 4.456.827a7.42 7.42 0 0 1 2.758 1.795c.84.84 1.36 1.64 1.796 2.76.329.845.72 2.115.827 4.455l.14 9.695-.14 9.695c-.107 2.34-.498 3.61-.827 4.455a7.42 7.42 0 0 1-1.796 2.757 7.42 7.42 0 0 1-2.758 1.795c-.845.33-2.116.72-4.456.827l-9.698.14c-6.409 0-7.168-.025-9.698-.14-2.34-.108-3.61-.499-4.457-.828a7.43 7.43 0 0 1-2.76-1.795c-.84-.84-1.36-1.638-1.796-2.759-.329-.845-.72-2.115-.827-4.455l-.138-9.699.138-9.695c.107-2.34.498-3.61.827-4.456.435-1.12.956-1.92 1.796-2.76s1.64-1.36 2.76-1.796c.846-.33 2.117-.72 4.457-.827l7.545-.135zM36.813 8.31a2.88 2.88 0 0 0-2.88 2.879 2.88 2.88 0 0 0 5.76 0 2.88 2.88 0 0 0-2.88-2.88zm-12.811 3.365A12.33 12.33 0 0 0 11.677 24c0 6.807 5.519 12.322 12.325 12.322S36.325 30.807 36.325 24s-5.517-12.325-12.324-12.325zm0 4.325a8 8 0 0 1 8 8c0 4.418-3.582 8-8 8a8 8 0 1 1 0-16z"
     id="path2"
     style="fill:#e1d5bc;fill-opacity:1" />
</svg>
