<?xml version="1.0" encoding="UTF-8" standalone="no"?>
<svg
   width="48"
   height="48"
   fill-rule="evenodd"
   stroke-linejoin="round"
   stroke-miterlimit="2"
   version="1.1"
   id="svg4"
   sodipodi:docname="linkedin_logo.svg"
   inkscape:version="1.1.2 (0a00cf5339, 2022-02-04, custom)"
   xmlns:inkscape="http://www.inkscape.org/namespaces/inkscape"
   xmlns:sodipodi="http://sodipodi.sourceforge.net/DTD/sodipodi-0.dtd"
   xmlns="http://www.w3.org/2000/svg"
   xmlns:svg="http://www.w3.org/2000/svg">
  <defs
     id="defs8" />
  <sodipodi:namedview
     id="namedview6"
     pagecolor="#505050"
     bordercolor="#eeeeee"
     borderopacity="1"
     inkscape:pageshadow="0"
     inkscape:pageopacity="0"
     inkscape:pagecheckerboard="0"
     showgrid="false"
     inkscape:zoom="17.208333"
     inkscape:cx="24"
     inkscape:cy="24.029056"
     inkscape:window-width="1920"
     inkscape:window-height="1011"
     inkscape:window-x="0"
     inkscape:window-y="32"
     inkscape:window-maximized="1"
     inkscape:current-layer="svg4" />
  <path
     d="M40.899 40.9h-7.112V29.762c0-2.656-.047-6.075-3.699-6.075-3.704 0-4.271 2.894-4.271 5.882v11.331h-7.112V17.994h6.828v3.13h.096a7.49 7.49 0 0 1 6.737-3.7c7.208 0 8.538 4.742 8.538 10.91zm-30.22-26.037h-.001a4.15 4.15 0 0 1-4.127-4.127 4.15 4.15 0 0 1 4.127-4.127 4.15 4.15 0 0 1 4.127 4.127v.001a4.15 4.15 0 0 1-4.126 4.127M14.236 40.9h-7.12V17.994h7.12zM44.445.004H3.542A3.52 3.52 0 0 0 0 3.463v41.073C.023 46.458 1.621 48.021 3.542 48h40.903A3.53 3.53 0 0 0 48 44.537V3.46c-.026-1.924-1.632-3.485-3.555-3.46"
     fill="currentcolor"
     id="path2"
     style="fill:#e1d5bc;fill-opacity:1" />
</svg>
