<?xml version="1.0" encoding="UTF-8" standalone="no"?>
<svg
   width="385.123"
   height="239.861"
   viewBox="0 0 288.842 179.896"
   preserveAspectRatio="xMidYMid meet"
   fill="CurrentColor"
   version="1.1"
   id="svg4"
   sodipodi:docname="logo.svg"
   inkscape:version="1.1.2 (0a00cf5339, 2022-02-04, custom)"
   xmlns:inkscape="http://www.inkscape.org/namespaces/inkscape"
   xmlns:sodipodi="http://sodipodi.sourceforge.net/DTD/sodipodi-0.dtd"
   xmlns="http://www.w3.org/2000/svg"
   xmlns:svg="http://www.w3.org/2000/svg">
  <defs
     id="defs8" />
  <sodipodi:namedview
     id="namedview6"
     pagecolor="#505050"
     bordercolor="#eeeeee"
     borderopacity="1"
     inkscape:pageshadow="0"
     inkscape:pageopacity="0"
     inkscape:pagecheckerboard="0"
     showgrid="false"
     inkscape:zoom="1.7218306"
     inkscape:cx="144.61353"
     inkscape:cy="107.1534"
     inkscape:window-width="1920"
     inkscape:window-height="1011"
     inkscape:window-x="0"
     inkscape:window-y="32"
     inkscape:window-maximized="1"
     inkscape:current-layer="svg4" />
  <path
     d="M107.118 3.391c-8.6 6.1-18.6 7-27.2 2.6-4.8-2.6-6.8-2.6-12.2-.1-8.1 3.6-10.6 12.1-5.7 19.2 7.7 11.1 24.8 18.9 47.9 21.7 6.7.8 10 1.8 13.4 3.9 10.2 6.3 14.6 16.9 11.6 28.4-3.2 12.7-10.4 23.9-22.6 35.2-16.4 15.2-32.3 17.2-54.6 7l-7.4-3.3 2.1 2.7c6.7 8.6 19.8 16.3 32.5 18.9 7.9 1.6 14 1.3 27.1-1.3 2.9-.6 3.1-.3 6.7 6.8 10.2 20.5 29 33.2 51.4 34.5 8.8.6 9.2.5 11.7-2 5.1-5.1 2.8-13.7-4.1-15.3-29.7-6.5-42-17.7-43.1-39-.5-9.9 1.2-16.1 7-25.2 8.8-13.6 20-20.7 35.1-22.3 5.1-.5 10.8-1.4 12.7-2 11.2-3.6 20.3-11.2 24.7-20.6 2.7-5.6 12.9-17.3 15.3-17.3 1.7 0 4.9 8 5.6 14.3.6 5.1 1.1 5.9 4 7.7 4.8 3 8.9 8.1 11 13.6.9 2.7 1.9 5.1 2 5.3.2.2 1.7-.7 3.4-1.9s5.1-2.8 7.6-3.6c3.8-1.1 4.4-1.1 4.4.2 0 2.3-2.5 6.6-5.5 9.4-1.5 1.4-4.7 5.5-7.1 9.2-4.5 6.8-11.3 12.6-17.8 15.3-2 .8-6.6 1.5-10.5 1.5-6.2 0-7.8-.4-15-4.2-6.8-3.5-8.5-4-10.8-3.2-5.5 1.9-10 15.2-8.9 26.1.6 6 .6 6.3-1.8 6.9-3.4.8-22.5-1.3-32.1-3.6-4.4-1-8.1-1.7-8.3-1.5-.8.8 13.3 9.8 21.9 14 14.7 7.1 26.4 9.7 43.9 9.9 15.6.1 23.8-1.2 37.3-6.1 15-5.4 27.9-15.8 33.3-26.8 2.8-5.7 2.9-6.6 2.8-18.5 0-11.1-.4-13.3-2.8-20-7.2-19.3-22.8-38.2-37.2-45-3.5-1.7-10.8-4.3-16.2-5.7-8.4-2.2-12.4-2.6-30.3-3-20.7-.5-23.1-.4-49.4 3.7-14.1 2.2-48.5 3.9-48.4 2.4 0-.5 2.6-2.7 5.7-5 7.2-5.1 13.6-14.1 13.6-19.1 0-2.6-.7-4.2-2.8-5.9-3.8-3.4-8.1-3-13.9 1.1zm-77.2 42.4c-6.8 2.4-9.3 3.8-14.1 7.7-12.2 9.8-17.6 29.6-15.3 55.9.9 10.3 1.4 12.4 3.5 15.2 5.2 6.8 14.1 9 22 5.4 4.9-2.2 7.9-6.1 9.4-12.2 1-4.1.9-5.1-2-12.3-7.7-19.2-7.9-37.6-.7-55.5 1.4-3.4 2.4-6.1 2.3-6.1 0 .1-2.4.9-5.1 1.9zm50.3 8.7c-3.5 1.8-5.8 6.2-5.8 10.8 0 4.9 1.6 5.4 2.4.7.7-4.3 7.1-11.1 10.5-11.1 1.1 0 2.3-.5 2.6-1 1-1.6-6.6-1.1-9.7.6zm144.2 15.7l2.9 2.7c1.1 1.3 1.2 1.2.3-.6-.7-1.2-1.9-2.4-2.9-2.8-1.6-.5-1.6-.4-.3.7zm-170.6 7.6c-4.6 2.8-6.4 5.9-6.4 11.1l.1 4.5 2.7-5.5c2.9-6 7.8-10 12.1-10 2 0 2.3-.2 1.1-1-2.4-1.5-6.2-1.2-9.6.9zm45.1 5.1c-3.7 2.4-7.8 9.2-7.3 12.3.4 3.2 5 3.5 9.2.6 4.6-3.1 7.8-8.1 7.4-11.6-.2-2.3-.8-2.8-3.3-3.1-1.7-.1-4.3.6-6 1.8zm138.1.2c1.2.5 2.7 2 3.2 3.2.8 1.5 1.1 1.7 1.1.5.1-1.9-3-4.9-5-4.8-.8 0-.5.5.7 1.1zm-17.6 5.3c0 2.3 4.7 6.7 6.7 6.3 2.7-.5 2.6-2.6-.1-5.3-2.8-2.8-6.6-3.4-6.6-1z"
     id="path2"
     style="fill:#e1d5bc;fill-opacity:1" />
</svg>
